<svg width="197" height="96" viewBox="0 0 197 96" fill="none" xmlns="http://www.w3.org/2000/svg">
<path d="M31.2871 41.0708L31.082 44.0005H25.2227L26.6875 24.9575H38.4062L39.8711 44.0005H34.0117L33.792 41.0708H31.2871ZM33.4844 36.6763L32.9424 29.3521H32.1074L31.5947 36.6763H33.4844ZM41.3359 44.0005V24.9575H47.1953V39.606H50.125V36.6763L55.9844 35.2114V44.0005H41.3359ZM63.3086 24.9575V44.0005H57.4492V24.9575H63.3086ZM70.6328 39.606H79.4219V44.0005H64.7734V24.9575H79.4219V29.3521H70.6328V32.2817H76.4922L75.0273 36.6763H70.6328V39.606ZM86.7461 32.2817V44.0005H80.8867V24.9575H86.7461L89.6758 29.3521V24.9575H95.5352V44.0005H89.6758V36.6763L86.7461 32.2817ZM47.1953 53.3521L41.3359 54.8169V53.3521H38.4062V63.606H41.3359V60.6763H39.8711V56.2817H47.1953V68.0005H32.5469V48.9575H47.1953V53.3521ZM54.7246 65.0708L54.5195 68.0005H48.6602L50.125 48.9575H61.8438L63.3086 68.0005H57.4492L57.2295 65.0708H54.7246ZM56.9219 60.6763L56.3799 53.3521H55.5449L55.0322 60.6763H56.9219ZM70.6328 56.2817V68.0005H64.7734V48.9575H70.6328L73.5625 53.3521V48.9575H79.4219V68.0005H73.5625V60.6763L70.6328 56.2817ZM95.5352 53.3521L89.6758 54.8169V53.3521H86.7461V63.606H89.6758V60.6763H88.2109V56.2817H95.5352V68.0005H80.8867V48.9575H95.5352V53.3521Z" fill="white"/>
<g filter="url(#filter0_d_52_6)">
<path d="M136.621 20.3931V31.3794H114.648V38.7036H136.621V68.0005H100V57.0142L114.648 53.3521V57.0142H121.973V49.6899H100V20.3931H136.621ZM143.945 31.3794H140.283L143.945 20.3931H158.594V68.0005H143.945V31.3794Z" fill="#4C19BA"/>
</g>
<defs>
<filter id="filter0_d_52_6" x="76" y="0.393066" width="106.594" height="95.6074" filterUnits="userSpaceOnUse" color-interpolation-filters="sRGB">
<feFlood flood-opacity="0" result="BackgroundImageFix"/>
<feColorMatrix in="SourceAlpha" type="matrix" values="0 0 0 0 0 0 0 0 0 0 0 0 0 0 0 0 0 0 127 0" result="hardAlpha"/>
<feOffset dy="4"/>
<feGaussianBlur stdDeviation="12"/>
<feComposite in2="hardAlpha" operator="out"/>
<feColorMatrix type="matrix" values="0 0 0 0 0.298039 0 0 0 0 0.0980392 0 0 0 0 0.729412 0 0 0 0.25 0"/>
<feBlend mode="normal" in2="BackgroundImageFix" result="effect1_dropShadow_52_6"/>
<feBlend mode="normal" in="SourceGraphic" in2="effect1_dropShadow_52_6" result="shape"/>
</filter>
</defs>
</svg>
